# xmcd CD database file
#
# Track frame offsets:
#	150
#	10527
#	25795
#	38645
#	51781
#	66462
#	80835
#	91910
#	107032
#	122516
#	134087
#	146611
#	161211
#	175895
#	189724
#	204846
#	218491
#	232167
#	246489
#	260895
#
# Disc length: 3659 seconds
#
# Revision: 1
# Processed by: cddbd v1.5.1PL2 Copyright (c) Steve Scherf et al.
# Submitted via: CDex 1.51
#
DISCID=260e4914
DTITLE=Crooners - Soho Collection CD1
DYEAR=2004
DGENRE=Vocal
TTITLE0=Dean Martin - If I could sing like bing
TTITLE1=Charles Trenet - La mer
TTITLE2=Vic Damone - Amor, amor
TTITLE3=Billy Eckstine - I apologise
TTITLE4=Nat King Cole - Too young
TTITLE5=Frank Sinatra - Try a little tenderness
TTITLE6=Maurice Chevalier - Mimi
TTITLE7=Russ Columbo - Where the blue of the night
TTITLE8=Russ Columbo - Auf wiedersehen, my dear
TTITLE9=Bing Crosby - Learn to croon
TTITLE10=Perry Como - Temptation
TTITLE11=Donald Peers - The zither melody
TTITLE12=Perry Como - Girl of my dreams
TTITLE13=Dick Haymes - Do you love me?
TTITLE14=Frank Sinatra - Someone to watch over me
TTITLE15=Bing Crosby - White Christmas
TTITLE16=Frank Sinatra - I'll get byYou go to my head
TTITLE17=Nick Lukas - I'll get by
TTITLE18=Dick Haymes - Another night like this
TTITLE19=Perry Como - Chi-baba chi-baba
EXTD=YEAR: 2004
EXTT0=
EXTT1=
EXTT2=
EXTT3=
EXTT4=
EXTT5=
EXTT6=
EXTT7=
EXTT8=
EXTT9=
EXTT10=
EXTT11=
EXTT12=
EXTT13=
EXTT14=
EXTT15=
EXTT16=
EXTT17=
EXTT18=
EXTT19=
PLAYORDER=
